<?xml version="1.0" encoding="UTF-8" standalone="no"?><!DOCTYPE svg PUBLIC "-//W3C//DTD SVG 1.1//EN" "http://www.w3.org/Graphics/SVG/1.1/DTD/svg11.dtd"><svg width="100%" height="100%" viewBox="0 0 246 246" version="1.1" xmlns="http://www.w3.org/2000/svg" xmlns:xlink="http://www.w3.org/1999/xlink" xml:space="preserve" xmlns:serif="http://www.serif.com/" style="fill-rule:evenodd;clip-rule:evenodd;stroke-linecap:round;stroke-linejoin:round;stroke-miterlimit:1.5;"><g><g id="Layer2"><path d="M98.279,121.034c-15.223,-8.789 -24.601,-25.032 -24.601,-42.61c0,-27.155 22.047,-49.202 49.202,-49.202c27.155,0 49.202,22.047 49.202,49.202c0,17.578 -9.378,33.821 -24.601,42.61" style="fill:#024b90;fill-opacity:0;stroke:#f87b21;stroke-opacity:1;stroke-width:10px;"/><path d="M151.45,61l-28.57,17.424l-19.97,-12.628" style="fill:#024b90;fill-opacity:0;stroke:#f87b21;stroke-opacity:1;stroke-width:8px;"/><circle cx="122.88" cy="76.912" r="7.2" style="fill:#f87b21;stroke:#f87b21;stroke-opacity:0;stroke-width:8px;stroke-linejoin:miter;stroke-miterlimit:1;"/></g><path d="M122.88,107.449c16.521,0 29.934,13.413 29.934,29.934c0,16.521 -13.413,29.934 -29.934,29.934c-16.521,0 -29.934,-13.413 -29.934,-29.934c0,-16.521 13.413,-29.934 29.934,-29.934Zm-14.14,46.68l0,2.191c0,0.958 0.778,1.737 1.737,1.737l3.473,0c0.958,0 1.737,-0.778 1.737,-1.737l0,-1.742l14.388,0l0,1.742c0,0.958 0.778,1.737 1.737,1.737l3.473,0c0.958,0 1.737,-0.778 1.737,-1.737l0,-2.191c1.799,-0.806 3.054,-2.613 3.054,-4.71l0,-20.633c0,-4.745 -3.852,-8.597 -8.597,-8.597l-17.194,0c-4.745,0 -8.597,3.852 -8.597,8.597l0,20.633c0,2.097 1.255,3.904 3.054,4.71Z" style="fill:#035397;stroke:#f87b21;stroke-opacity:0;stroke-width:8px;stroke-linejoin:miter;stroke-miterlimit:1;"/><path d="M137.351,131.099l0,6.615c0,1.826 -1.482,3.308 -3.308,3.308l-22.327,0c-1.826,0 -3.308,-1.482 -3.308,-3.308l0,-6.615c0,-1.826 1.482,-3.308 3.308,-3.308l22.327,0c1.826,0 3.308,1.482 3.308,3.308Z" style="fill:#035397;stroke:#f87b21;stroke-opacity:0;stroke-width:8px;stroke-linejoin:miter;stroke-miterlimit:1;"/><rect x="113.205" y="122.88" width="19.35" height="2.761" style="fill:#035397;stroke:#f87b21;stroke-opacity:0;stroke-width:8px;stroke-linejoin:miter;stroke-miterlimit:1;"/><circle cx="111.458" cy="147.544" r="3.049" style="fill:#035397;stroke:#f87b21;stroke-opacity:0;stroke-width:8px;stroke-linejoin:miter;stroke-miterlimit:1;"/><circle cx="134.302" cy="147.544" r="3.049" style="fill:#035397;stroke:#f87b21;stroke-opacity:0;stroke-width:8px;stroke-linejoin:miter;stroke-miterlimit:1;"/><path d="M122.88,161.198l0,52.757" style="fill:none;stroke:#035397;stroke-width:8px;stroke-linejoin:miter;stroke-miterlimit:1;"/><path d="M136.028,213.336l0,5.086l-26.296,0l0,-5.086c0,-0.936 0.76,-1.695 1.695,-1.695l22.906,0c0.936,0 1.695,0.76 1.695,1.695Z" style="fill:#035397;stroke:#035397;stroke-opacity:0;stroke-width:8px;stroke-linejoin:miter;stroke-miterlimit:1;"/></g></svg>